<?xml version="1.0" encoding="UTF-8"?><svg id="a" xmlns="http://www.w3.org/2000/svg" width="30.68" height="25.4" viewBox="0 0 30.68 25.4"><defs><style>.b{fill:#fff;}</style></defs><path class="b" d="M1.3,7.63s.02,0,.04,0l1.26,.45,11.45,4.14c.8,.29,1.79,.29,2.59,0l12.72-4.59s0,0,.01,0c0,0,.02,0,.02,0,1.72-.62,1.72-2.18,0-2.8L16.63,.22c-.8-.29-1.79-.29-2.59,0L1.32,4.81s-.01,0-.02,0h0c-.43,.16-.76,.37-.97,.62C-.32,6.16,0,7.16,1.3,7.63Zm15.33-3.67l6.28,2.27-6.27,2.27c-.8,.29-1.79,.29-2.59,0l-6.27-2.27,6.27-2.26c.8-.29,1.79-.29,2.59,0Z"/><path class="b" d="M29.38,17.77c-.8-.29-1.79-.29-2.59,0l-10.16,3.67c-.8,.29-1.79,.29-2.59,0l-6.29-2.27-3.88-1.4c-.8-.29-1.79-.29-2.59,0-1.72,.62-1.73,2.18,0,2.8l1.34,.49,11.41,4.12c.8,.29,1.79,.29,2.59,0l12.75-4.61c1.73-.62,1.72-2.18,0-2.8Z"/><path class="b" d="M29.33,11.42c-.8-.28-1.78-.28-2.57,0l-10.12,3.66c-.8,.29-1.79,.29-2.59,0l-6.28-2.27-3.88-1.4c-.8-.29-1.79-.29-2.59,0h0c-1.73,.62-1.72,2.18,0,2.81l1.29,.47,11.45,4.14c.8,.29,1.79,.29,2.59,0l12.72-4.59c1.73-.63,1.72-2.19-.02-2.81Z"/></svg>